<svg width="19" height="19" viewBox="0 0 19 19" fill="none" xmlns="http://www.w3.org/2000/svg">
<path d="M9.4997 1.375C10.0002 1.375 10.4858 1.44432 10.9479 1.57227C10.4575 2.08173 10.0827 2.70366 9.86884 3.39648C9.7474 3.38341 9.62435 3.375 9.4997 3.375C7.75576 3.375 6.29092 4.68665 6.09833 6.41992L5.89911 8.21387C5.78095 9.27706 5.43483 10.3024 4.88446 11.2197L4.42646 11.9824C4.29753 12.1973 4.21975 12.3276 4.16767 12.4248C4.16272 12.434 4.15785 12.4427 4.154 12.4502C4.16255 12.4508 4.17255 12.4526 4.18329 12.4531C4.29342 12.4585 4.44529 12.458 4.69599 12.458H14.3034C14.5541 12.458 14.706 12.4585 14.8161 12.4531C14.8264 12.4526 14.8361 12.4507 14.8444 12.4502C14.8406 12.4428 14.8366 12.4339 14.8317 12.4248C14.7796 12.3276 14.7019 12.1973 14.5729 11.9824L14.1149 11.2197C13.7427 10.5993 13.4658 9.92898 13.2878 9.23145C13.5979 9.29771 13.9198 9.33396 14.2497 9.33398C14.6341 9.33396 15.0072 9.28546 15.364 9.19629C15.4852 9.54149 15.6405 9.87487 15.8298 10.1904L16.2878 10.9531C16.4064 11.1509 16.5149 11.3302 16.5954 11.4805C16.6734 11.6261 16.7677 11.8199 16.8151 12.0439C17.0242 13.0315 16.4647 14.0206 15.5104 14.3496C15.2939 14.4242 15.0788 14.4422 14.9138 14.4502C14.7435 14.4585 14.534 14.458 14.3034 14.458H4.69599C4.46538 14.458 4.25588 14.4585 4.08564 14.4502C3.92064 14.4422 3.7055 14.4242 3.48896 14.3496C2.53465 14.0207 1.97521 13.0315 2.18427 12.0439C2.23173 11.8199 2.32599 11.6261 2.404 11.4805C2.48449 11.3302 2.59296 11.1509 2.71161 10.9531L3.16962 10.1904C3.57187 9.51989 3.82442 8.77031 3.91083 7.99316L4.11005 6.19824C4.41536 3.45231 6.7368 1.375 9.4997 1.375ZM13.6345 3.29004C14.3121 4.08792 14.7646 5.0873 14.8884 6.19629C14.6927 6.28291 14.4774 6.33393 14.2497 6.33398L14.0886 6.3252C13.2901 6.24431 12.6669 5.56979 12.6667 4.75C12.6668 4.0938 13.0656 3.53005 13.6345 3.29004Z" fill="#8CC63E"/>
<path d="M7.20593 13.9845C7.34124 14.742 7.63941 15.4114 8.05419 15.8888C8.46897 16.3662 8.97718 16.625 9.5 16.625C10.0228 16.625 10.531 16.3662 10.9458 15.8888C11.3606 15.4114 11.6588 14.742 11.7941 13.9845" stroke="#8CC63E" stroke-width="2" stroke-linecap="round"/>
<circle cx="14.2503" cy="4.75033" r="2.08333" fill="#8CC63E" stroke="#8CC63E"/>
</svg>
