<svg width="165" height="57" viewBox="0 0 165 57" fill="none" xmlns="http://www.w3.org/2000/svg">
<path d="M6.34615 20.7367L0 0L165 0V50.7692L155.833 56.0577H2.11538L6.34615 20.7367Z" fill="black"/>
<rect x="12.6924" y="5.64062" width="146.667" height="39.4872" fill="#8CC63E"/>
<path d="M47.3097 35.9234C46.2647 35.8574 45.2252 35.7914 44.1912 35.7254C43.1682 35.6704 42.1342 35.6154 41.0892 35.5604C40.1432 35.5164 39.1862 35.4669 38.2182 35.4119C37.2612 35.3569 36.3042 35.3019 35.3472 35.2469C35.2812 33.3439 35.2317 31.5179 35.1987 29.7689C35.1657 28.0089 35.1492 26.3589 35.1492 24.8189C35.1492 22.4649 35.1712 20.4464 35.2152 18.7634C35.2592 17.0694 35.3032 15.8319 35.3472 15.0509C37.4592 14.6439 39.4172 14.3524 41.2212 14.1764C43.0362 13.9894 44.5487 13.8739 45.7587 13.8299C46.9687 13.7859 47.7222 13.7639 48.0192 13.7639C48.0192 14.5559 47.9917 15.3424 47.9367 16.1234C47.8927 16.8934 47.8322 17.7074 47.7552 18.5654L41.1552 19.1099C41.1332 19.2089 41.1167 19.3849 41.1057 19.6379C41.1057 19.8799 41.1002 20.1494 41.0892 20.4464C41.0892 20.7324 41.0892 21.0019 41.0892 21.2549C41.0892 21.4969 41.0892 21.6729 41.0892 21.7829C41.3532 21.7829 41.6667 21.7829 42.0297 21.7829C42.4037 21.7719 42.8052 21.7609 43.2342 21.7499C43.6742 21.7389 44.1087 21.7334 44.5377 21.7334C44.9777 21.7224 45.3902 21.7169 45.7752 21.7169C46.1712 21.7059 46.5122 21.6949 46.7982 21.6839L46.7157 26.7494C46.5727 26.7384 46.3032 26.7274 45.9072 26.7164C45.5222 26.6944 45.0767 26.6724 44.5707 26.6504C44.0647 26.6284 43.5587 26.6064 43.0527 26.5844C42.5577 26.5624 42.1177 26.5459 41.7327 26.5349C41.3587 26.5239 41.1002 26.5184 40.9572 26.5184C40.9462 26.6174 40.9352 26.7714 40.9242 26.9804C40.9242 27.1784 40.9187 27.4039 40.9077 27.6569C40.9077 27.8989 40.9022 28.1464 40.8912 28.3994C40.8912 28.6524 40.8857 28.8889 40.8747 29.1089C40.8747 29.3179 40.8747 29.4884 40.8747 29.6204C40.9957 29.6094 41.3697 29.6039 41.9967 29.6039C42.6347 29.6039 43.2947 29.6039 43.9767 29.6039C44.4827 29.6039 44.9777 29.6149 45.4617 29.6369C45.9567 29.6479 46.4132 29.6699 46.8312 29.7029C47.2602 29.7249 47.6177 29.7524 47.9037 29.7854C47.8927 30.2804 47.8652 30.8469 47.8212 31.4849C47.7772 32.1229 47.7222 32.7554 47.6562 33.3824C47.6012 34.0094 47.5407 34.5539 47.4747 35.0159C47.4087 35.4779 47.3537 35.7804 47.3097 35.9234ZM55.4447 25.1324C54.8947 24.1314 54.2677 23.1139 53.5637 22.0799C52.8597 21.0459 52.1557 20.0724 51.4517 19.1594C50.7587 18.2464 50.1482 17.4764 49.6202 16.8494C49.0922 16.2114 48.7347 15.7934 48.5477 15.5954C48.8997 15.4084 49.3617 15.2104 49.9337 15.0014C50.5057 14.7814 51.1162 14.5724 51.7652 14.3744C52.4142 14.1654 53.0357 13.9839 53.6297 13.8299C54.2237 13.6759 54.7242 13.5659 55.1312 13.4999C55.3952 13.8629 55.7032 14.3634 56.0552 15.0014C56.4182 15.6284 56.7812 16.2994 57.1442 17.0144C57.5182 17.7184 57.8537 18.3729 58.1507 18.9779C58.4477 19.5829 58.6677 20.0394 58.8107 20.3474C59.1077 19.8304 59.3827 19.2859 59.6357 18.7139C59.8997 18.1419 60.1417 17.5699 60.3617 16.9979C60.5927 16.4149 60.8017 15.8539 60.9887 15.3149C61.1757 14.7759 61.3352 14.2754 61.4672 13.8134C62.3802 13.9454 63.2437 14.1269 64.0577 14.3579C64.8717 14.5889 65.5922 14.8364 66.2192 15.1004C66.8462 15.3534 67.3027 15.6009 67.5887 15.8429C67.3577 16.3929 67.0057 17.0474 66.5327 17.8064C66.0707 18.5654 65.5482 19.3629 64.9652 20.1989C64.3822 21.0239 63.8102 21.8269 63.2492 22.6079C62.6882 23.3779 62.1877 24.0544 61.7477 24.6374C62.1767 25.1764 62.6332 25.8089 63.1172 26.5349C63.6122 27.2609 64.1072 28.0199 64.6022 28.8119C65.0972 29.6039 65.5647 30.3739 66.0047 31.1219C66.4447 31.8699 66.8242 32.5409 67.1432 33.1349C67.4732 33.7289 67.7097 34.1854 67.8527 34.5044C67.3467 34.8124 66.7472 35.1039 66.0542 35.3789C65.3612 35.6429 64.6627 35.8684 63.9587 36.0554C63.2657 36.2534 62.6607 36.4019 62.1437 36.5009C61.9457 35.9179 61.7037 35.2909 61.4177 34.6199C61.1427 33.9489 60.8017 33.2174 60.3947 32.4254C59.9987 31.6334 59.5092 30.7644 58.9262 29.8184C58.6512 30.3134 58.3707 30.8029 58.0847 31.2869C57.8097 31.7709 57.5347 32.2329 57.2597 32.6729C56.9847 33.1129 56.7262 33.5254 56.4842 33.9104C56.2422 34.2954 56.0167 34.6419 55.8077 34.9499C55.6097 35.2579 55.4392 35.5109 55.2962 35.7089C55.1532 35.9069 55.0432 36.0499 54.9662 36.1379C53.9872 36.0389 53.0467 35.8794 52.1447 35.6594C51.2537 35.4394 50.1702 35.1534 48.8942 34.8014C49.3892 34.1854 49.9172 33.4869 50.4782 32.7059C51.0502 31.9249 51.6277 31.1054 52.2107 30.2474C52.7937 29.3894 53.3602 28.5259 53.9102 27.6569C54.4712 26.7879 54.9827 25.9464 55.4447 25.1324ZM68.4026 35.8079C68.4026 35.6319 68.4081 35.1809 68.4191 34.4549C68.4301 33.7179 68.4466 32.7994 68.4686 31.6994C68.4906 30.5994 68.5181 29.3949 68.5511 28.0859C68.5841 26.7769 68.6226 25.4459 68.6666 24.0929C68.7106 22.7399 68.7546 21.4584 68.7986 20.2484C68.8426 19.0274 68.8921 17.9549 68.9471 17.0309C69.0021 16.1069 69.0571 15.4249 69.1121 14.9849C70.1461 14.7759 71.2241 14.6274 72.3461 14.5394C73.4681 14.4404 74.6176 14.3909 75.7946 14.3909C77.2796 14.3909 78.5831 14.6054 79.7051 15.0344C80.8381 15.4524 81.7181 16.1069 82.3451 16.9979C82.9831 17.8889 83.3021 19.0494 83.3021 20.4794C83.3021 21.8764 83.0546 23.1029 82.5596 24.1589C82.0756 25.2149 81.3276 26.0344 80.3156 26.6174C79.3036 27.2004 78.0276 27.4919 76.4876 27.4919C76.2126 27.4919 75.8716 27.4699 75.4646 27.4259C75.0576 27.3709 74.7661 27.3049 74.5901 27.2279C74.5901 27.5249 74.5791 28.0529 74.5571 28.8119C74.5461 29.5599 74.5296 30.3959 74.5076 31.3199C74.4856 32.2439 74.4636 33.1294 74.4416 33.9764C74.4196 34.8124 74.4031 35.4724 74.3921 35.9564C74.1061 35.9564 73.6936 35.9509 73.1546 35.9399C72.6266 35.9399 72.0601 35.9289 71.4551 35.9069C70.8501 35.8959 70.2726 35.8794 69.7226 35.8574C69.1726 35.8354 68.7326 35.8189 68.4026 35.8079ZM74.4746 22.4429C74.6616 22.4759 74.8816 22.5089 75.1346 22.5419C75.3876 22.5639 75.6241 22.5749 75.8441 22.5749C76.3171 22.5749 76.7461 22.4924 77.1311 22.3274C77.5161 22.1624 77.8186 21.9259 78.0386 21.6179C78.2696 21.2989 78.3851 20.9084 78.3851 20.4464C78.3851 19.7314 78.1816 19.2474 77.7746 18.9944C77.3676 18.7414 76.8176 18.6149 76.1246 18.6149C75.8606 18.6149 75.5856 18.6314 75.2996 18.6644C75.0246 18.6864 74.7331 18.7139 74.4251 18.7469C74.4251 18.8019 74.4251 18.9449 74.4251 19.1759C74.4361 19.4069 74.4416 19.6819 74.4416 20.0009C74.4526 20.3089 74.4581 20.6279 74.4581 20.9579C74.4691 21.2879 74.4746 21.5904 74.4746 21.8654C74.4746 22.1294 74.4746 22.3219 74.4746 22.4429ZM93.7263 36.5339C91.3723 36.5339 89.4473 36.0389 87.9513 35.0489C86.4663 34.0589 85.3718 32.7114 84.6678 31.0064C83.9638 29.2904 83.6118 27.3544 83.6118 25.1984C83.6118 23.0204 84.0133 21.0844 84.8163 19.3904C85.6193 17.6854 86.7688 16.3489 88.2648 15.3809C89.7718 14.4019 91.5923 13.9124 93.7263 13.9124C95.4973 13.9124 97.0208 14.1984 98.2968 14.7704C99.5728 15.3314 100.618 16.1234 101.432 17.1464C102.257 18.1584 102.867 19.3464 103.263 20.7104C103.659 22.0744 103.857 23.5484 103.857 25.1324C103.857 26.6174 103.659 28.0474 103.263 29.4224C102.878 30.7864 102.279 32.0019 101.465 33.0689C100.651 34.1359 99.6003 34.9829 98.3133 35.6099C97.0373 36.2259 95.5083 36.5339 93.7263 36.5339ZM93.8088 30.5774C94.8208 30.5774 95.6733 30.2914 96.3663 29.7194C97.0593 29.1474 97.5818 28.3994 97.9338 27.4754C98.2968 26.5514 98.4783 25.5669 98.4783 24.5219C98.4783 23.7519 98.4013 23.0204 98.2473 22.3274C98.1043 21.6344 97.8623 21.0239 97.5213 20.4959C97.1803 19.9569 96.7293 19.5334 96.1683 19.2254C95.6073 18.9174 94.9143 18.7634 94.0893 18.7634C93.1983 18.7634 92.4063 19.0494 91.7133 19.6214C91.0313 20.1824 90.4923 20.9414 90.0963 21.8984C89.7113 22.8554 89.5188 23.9114 89.5188 25.0664C89.5188 26.1224 89.6508 27.0684 89.9148 27.9044C90.1788 28.7294 90.6243 29.3839 91.2513 29.8679C91.8893 30.3409 92.7418 30.5774 93.8088 30.5774ZM105.664 36.1049C105.598 34.8619 105.516 33.3439 105.417 31.5509C105.318 29.7579 105.213 27.8439 105.103 25.8089C105.004 23.7629 104.905 21.7334 104.806 19.7204C104.718 17.7074 104.636 15.8649 104.559 14.1929C105.01 14.1489 105.587 14.1049 106.291 14.0609C106.995 14.0059 107.754 13.9564 108.568 13.9124C109.393 13.8684 110.196 13.8299 110.977 13.7969C111.769 13.7639 112.468 13.7474 113.073 13.7474C113.931 13.7474 114.794 13.8299 115.663 13.9949C116.543 14.1489 117.352 14.4294 118.089 14.8364C118.826 15.2324 119.414 15.7989 119.854 16.5359C120.305 17.2729 120.531 18.2299 120.531 19.4069C120.531 20.5399 120.234 21.6124 119.64 22.6244C119.057 23.6254 118.303 24.3624 117.379 24.8354C117.632 25.3084 117.913 25.8804 118.221 26.5514C118.529 27.2224 118.837 27.9319 119.145 28.6799C119.453 29.4279 119.75 30.1704 120.036 30.9074C120.322 31.6334 120.575 32.2989 120.795 32.9039C121.015 33.5089 121.18 33.9929 121.29 34.3559C120.927 34.5759 120.443 34.7849 119.838 34.9829C119.233 35.1809 118.611 35.3569 117.973 35.5109C117.346 35.6649 116.802 35.7859 116.34 35.8739C115.878 35.9619 115.603 36.0114 115.515 36.0224C115.449 35.6484 115.328 35.1149 115.152 34.4219C114.976 33.7289 114.767 32.9699 114.525 32.1449C114.294 31.3199 114.063 30.5059 113.832 29.7029C113.601 28.8889 113.386 28.1629 113.188 27.5249C112.99 26.8759 112.836 26.4029 112.726 26.1059C112.528 26.1389 112.336 26.1719 112.149 26.2049C111.973 26.2379 111.802 26.2599 111.637 26.2709C111.472 26.2819 111.307 26.2929 111.142 26.3039C111.175 26.5899 111.219 27.0244 111.274 27.6074C111.329 28.1794 111.384 28.8394 111.439 29.5874C111.494 30.3244 111.544 31.0834 111.588 31.8644C111.643 32.6344 111.687 33.3604 111.72 34.0424C111.753 34.7134 111.769 35.2689 111.769 35.7089C111.274 35.8189 110.675 35.9014 109.971 35.9564C109.278 36.0114 108.552 36.0499 107.793 36.0719C107.034 36.0939 106.324 36.1049 105.664 36.1049ZM110.614 21.8984C110.911 21.8984 111.219 21.8874 111.538 21.8654C111.857 21.8434 112.248 21.7994 112.71 21.7334C113.304 21.6344 113.799 21.4969 114.195 21.3209C114.591 21.1449 114.882 20.9139 115.069 20.6279C115.267 20.3309 115.366 19.9789 115.366 19.5719C115.366 19.0769 115.245 18.7194 115.003 18.4994C114.761 18.2794 114.42 18.1419 113.98 18.0869C113.54 18.0209 113.018 17.9879 112.413 17.9879C112.237 17.9879 112.044 17.9934 111.835 18.0044C111.626 18.0154 111.417 18.0319 111.208 18.0539C111.01 18.0759 110.823 18.0979 110.647 18.1199C110.482 18.1309 110.356 18.1419 110.268 18.1529C110.29 18.3399 110.312 18.5654 110.334 18.8294C110.356 19.0824 110.383 19.3574 110.416 19.6544C110.449 19.9404 110.477 20.2264 110.499 20.5124C110.521 20.7984 110.543 21.0624 110.565 21.3044C110.587 21.5464 110.603 21.7444 110.614 21.8984ZM121.401 19.1594C121.346 18.8954 121.291 18.5159 121.236 18.0209C121.192 17.5149 121.154 16.9869 121.121 16.4369C121.099 15.8759 121.077 15.3754 121.055 14.9354C121.044 14.4954 121.038 14.2039 121.038 14.0609C122.27 13.9619 123.667 13.8794 125.229 13.8134C126.791 13.7474 128.375 13.7144 129.981 13.7144C131.213 13.7144 132.412 13.7419 133.578 13.7969C134.744 13.8409 135.811 13.9344 136.779 14.0774C136.779 15.1114 136.741 16.0739 136.664 16.9649C136.587 17.8449 136.493 18.4994 136.383 18.9284C136.185 18.9284 135.905 18.9284 135.542 18.9284C135.179 18.9174 134.777 18.9119 134.337 18.9119C133.897 18.9009 133.463 18.8954 133.034 18.8954C132.616 18.8844 132.253 18.8734 131.945 18.8624C131.967 19.2694 131.994 19.8634 132.027 20.6444C132.06 21.4144 132.099 22.2999 132.143 23.3009C132.198 24.2909 132.253 25.3304 132.308 26.4194C132.363 27.4974 132.412 28.5589 132.456 29.6039C132.511 30.6489 132.561 31.6004 132.605 32.4584C132.649 33.3164 132.687 34.0204 132.72 34.5704C132.753 35.1094 132.77 35.4229 132.77 35.5109C132.264 35.5879 131.615 35.6594 130.823 35.7254C130.031 35.7914 129.244 35.8409 128.463 35.8739C127.682 35.9069 127.044 35.9234 126.549 35.9234C126.516 35.2854 126.483 34.5264 126.45 33.6464C126.417 32.7554 126.39 31.7984 126.368 30.7754C126.346 29.7524 126.324 28.7074 126.302 27.6404C126.28 26.5734 126.263 25.5284 126.252 24.5054C126.241 23.4714 126.236 22.5144 126.236 21.6344C126.236 21.1174 126.236 20.6389 126.236 20.1989C126.247 19.7479 126.258 19.3409 126.269 18.9779C125.906 19.0109 125.521 19.0384 125.114 19.0604C124.718 19.0714 124.311 19.0879 123.893 19.1099C123.475 19.1209 123.057 19.1319 122.639 19.1429C122.221 19.1429 121.808 19.1484 121.401 19.1594Z" fill="black"/>
</svg>
