<svg width="117" height="40" viewBox="0 0 117 40" fill="none" xmlns="http://www.w3.org/2000/svg">
<path d="M4.5 14.7042L0 0L117 0V36L110.5 39.75H1.5L4.5 14.7042Z" fill="black"/>
<rect x="9" y="4" width="104" height="28" fill="white"/>
<path d="M15.644 13.477C15.6057 13.293 15.5673 13.0285 15.529 12.6835C15.4983 12.3308 15.4715 11.9628 15.4485 11.5795C15.4332 11.1885 15.4178 10.8397 15.4025 10.533C15.3948 10.2263 15.391 10.0232 15.391 9.9235C16.2497 9.8545 17.2233 9.797 18.312 9.751C19.4007 9.705 20.5047 9.682 21.624 9.682C22.4827 9.682 23.3183 9.70117 24.131 9.7395C24.9437 9.77017 25.6873 9.83533 26.362 9.935C26.362 10.6557 26.3352 11.3265 26.2815 11.9475C26.2278 12.5608 26.1627 13.017 26.086 13.316C25.948 13.316 25.7525 13.316 25.4995 13.316C25.2465 13.3083 24.9667 13.3045 24.66 13.3045C24.3533 13.2968 24.0505 13.293 23.7515 13.293C23.4602 13.2853 23.2072 13.2777 22.9925 13.27C23.0078 13.5537 23.027 13.9677 23.05 14.512C23.073 15.0487 23.0998 15.6658 23.1305 16.3635C23.1688 17.0535 23.2072 17.778 23.2455 18.537C23.2838 19.2883 23.3183 20.0282 23.349 20.7565C23.3873 21.4848 23.4218 22.148 23.4525 22.746C23.4832 23.344 23.51 23.8347 23.533 24.218C23.556 24.5937 23.5675 24.8122 23.5675 24.8735C23.2148 24.9272 22.7625 24.977 22.2105 25.023C21.6585 25.069 21.1103 25.1035 20.566 25.1265C20.0217 25.1495 19.577 25.161 19.232 25.161C19.209 24.7163 19.186 24.1873 19.163 23.574C19.14 22.953 19.1208 22.286 19.1055 21.573C19.0902 20.86 19.0748 20.1317 19.0595 19.388C19.0442 18.6443 19.0327 17.916 19.025 17.203C19.0173 16.4823 19.0135 15.8153 19.0135 15.202C19.0135 14.8417 19.0135 14.5082 19.0135 14.2015C19.0212 13.8872 19.0288 13.6035 19.0365 13.3505C18.7835 13.3735 18.5152 13.3927 18.2315 13.408C17.9555 13.4157 17.6718 13.4272 17.3805 13.4425C17.0892 13.4502 16.7978 13.4578 16.5065 13.4655C16.2152 13.4655 15.9277 13.4693 15.644 13.477ZM27.3632 25.2875C27.3172 24.4212 27.2597 23.3632 27.1907 22.1135C27.1217 20.8638 27.0489 19.5298 26.9722 18.1115C26.9032 16.6855 26.8342 15.271 26.7652 13.868C26.7039 12.465 26.6464 11.1808 26.5927 10.0155C26.9071 9.98483 27.3096 9.95417 27.8002 9.9235C28.2909 9.88517 28.8199 9.85067 29.3872 9.82C29.9622 9.78933 30.5219 9.7625 31.0662 9.7395C31.6182 9.7165 32.1051 9.705 32.5267 9.705C33.1247 9.705 33.7266 9.7625 34.3322 9.8775C34.9456 9.98483 35.5091 10.1803 36.0227 10.464C36.5364 10.74 36.9466 11.1348 37.2532 11.6485C37.5676 12.1622 37.7247 12.8292 37.7247 13.6495C37.7247 14.4392 37.5177 15.1867 37.1037 15.892C36.6974 16.5897 36.1722 17.1033 35.5282 17.433C35.7046 17.7627 35.9001 18.1613 36.1147 18.629C36.3294 19.0967 36.5441 19.5912 36.7587 20.1125C36.9734 20.6338 37.1804 21.1513 37.3797 21.665C37.5791 22.171 37.7554 22.6348 37.9087 23.0565C38.0621 23.4782 38.1771 23.8155 38.2537 24.0685C38.0007 24.2218 37.6634 24.3675 37.2417 24.5055C36.8201 24.6435 36.3869 24.7662 35.9422 24.8735C35.5052 24.9808 35.1257 25.0652 34.8037 25.1265C34.4817 25.1878 34.2901 25.2223 34.2287 25.23C34.1827 24.9693 34.0984 24.5975 33.9757 24.1145C33.8531 23.6315 33.7074 23.1025 33.5387 22.5275C33.3777 21.9525 33.2167 21.3852 33.0557 20.8255C32.8947 20.2582 32.7452 19.7522 32.6072 19.3075C32.4692 18.8552 32.3619 18.5255 32.2852 18.3185C32.1472 18.3415 32.0131 18.3645 31.8827 18.3875C31.7601 18.4105 31.6412 18.4258 31.5262 18.4335C31.4112 18.4412 31.2962 18.4488 31.1812 18.4565C31.2042 18.6558 31.2349 18.9587 31.2732 19.365C31.3116 19.7637 31.3499 20.2237 31.3882 20.745C31.4266 21.2587 31.4611 21.7877 31.4917 22.332C31.5301 22.8687 31.5607 23.3747 31.5837 23.85C31.6067 24.3177 31.6182 24.7048 31.6182 25.0115C31.2732 25.0882 30.8554 25.1457 30.3647 25.184C29.8817 25.2223 29.3757 25.2492 28.8467 25.2645C28.3177 25.2798 27.8232 25.2875 27.3632 25.2875ZM30.8132 15.386C31.0202 15.386 31.2349 15.3783 31.4572 15.363C31.6796 15.3477 31.9517 15.317 32.2737 15.271C32.6877 15.202 33.0327 15.1062 33.3087 14.9835C33.5847 14.8608 33.7879 14.6998 33.9182 14.5005C34.0562 14.2935 34.1252 14.0482 34.1252 13.7645C34.1252 13.4195 34.0409 13.1703 33.8722 13.017C33.7036 12.8637 33.4659 12.7678 33.1592 12.7295C32.8526 12.6835 32.4884 12.6605 32.0667 12.6605C31.9441 12.6605 31.8099 12.6643 31.6642 12.672C31.5186 12.6797 31.3729 12.6912 31.2272 12.7065C31.0892 12.7218 30.9589 12.7372 30.8362 12.7525C30.7212 12.7602 30.6331 12.7678 30.5717 12.7755C30.5871 12.9058 30.6024 13.063 30.6177 13.247C30.6331 13.4233 30.6522 13.615 30.6752 13.822C30.6982 14.0213 30.7174 14.2207 30.7327 14.42C30.7481 14.6193 30.7634 14.8033 30.7787 14.972C30.7941 15.1407 30.8056 15.2787 30.8132 15.386ZM41.6283 18.4335C41.3906 18.1115 41.1453 17.7627 40.8922 17.387C40.6469 17.0113 40.3939 16.6203 40.1333 16.214C39.8802 15.8 39.6272 15.3707 39.3742 14.926C39.1212 14.4813 38.8682 14.0213 38.6152 13.546C38.3622 13.0707 38.1169 12.5838 37.8792 12.0855C37.6416 11.5872 37.4154 11.0812 37.2007 10.5675C37.9981 10.2608 38.7609 10.0538 39.4892 9.9465C40.2176 9.8315 40.8079 9.774 41.2602 9.774C41.3216 9.91967 41.4098 10.1343 41.5248 10.418C41.6398 10.7017 41.7701 11.0237 41.9158 11.384C42.0691 11.7367 42.2263 12.1008 42.3873 12.4765C42.5559 12.8445 42.7131 13.1972 42.8588 13.5345C43.0121 13.8642 43.1463 14.144 43.2612 14.374C43.3302 14.2053 43.4337 13.9792 43.5718 13.6955C43.7098 13.4118 43.8631 13.0975 44.0318 12.7525C44.2081 12.3998 44.3883 12.0472 44.5723 11.6945C44.7563 11.3342 44.9288 11.0007 45.0898 10.694C45.2508 10.3873 45.3926 10.142 45.5153 9.958C45.9829 9.981 46.4544 10.0615 46.9297 10.1995C47.4128 10.3375 47.8651 10.4985 48.2868 10.6825C48.7161 10.8665 49.0803 11.0467 49.3792 11.223C49.0343 11.6753 48.6318 12.2657 48.1718 12.994C47.7194 13.7147 47.2403 14.5197 46.7343 15.409C46.2359 16.2907 45.7491 17.1992 45.2738 18.1345C45.2891 18.6022 45.3044 19.1005 45.3198 19.6295C45.3428 20.1585 45.3581 20.6568 45.3658 21.1245C45.3734 21.5922 45.3773 21.9717 45.3773 22.263C45.3773 22.6003 45.3734 22.953 45.3658 23.321C45.3658 23.6813 45.3658 23.9995 45.3658 24.2755C45.3658 24.5438 45.3619 24.7163 45.3543 24.793C45.2546 24.839 45.0399 24.8773 44.7103 24.908C44.3883 24.9387 44.0279 24.954 43.6292 24.954C43.2076 24.954 42.7897 24.9387 42.3758 24.908C41.9618 24.8697 41.6206 24.8237 41.3523 24.77C41.3523 24.3637 41.3599 23.8768 41.3753 23.3095C41.3906 22.7422 41.4098 22.1557 41.4328 21.55C41.4634 20.9443 41.4941 20.3693 41.5248 19.825C41.5631 19.273 41.5976 18.8092 41.6283 18.4335ZM59.9442 25.0805C59.4152 25.0805 58.8593 25.0613 58.2767 25.023C57.7017 24.9923 57.1688 24.9578 56.6782 24.9195C56.1952 24.8735 55.8195 24.8352 55.5512 24.8045C55.5588 24.7432 55.5627 24.5668 55.5627 24.2755C55.5627 23.9765 55.5627 23.597 55.5627 23.137C55.5703 22.6693 55.5742 22.1442 55.5742 21.5615C55.5742 20.9788 55.5742 20.3617 55.5742 19.71C55.5818 19.0583 55.5857 18.399 55.5857 17.732C55.5857 16.8197 55.5818 15.9073 55.5742 14.995C55.5665 14.075 55.5512 13.2202 55.5282 12.4305C55.5128 11.6332 55.486 10.9738 55.4477 10.4525C55.6087 10.4525 55.8617 10.4602 56.2067 10.4755C56.5593 10.4832 56.9465 10.5023 57.3682 10.533C57.7898 10.556 58.2 10.5867 58.5987 10.625C59.005 10.6633 59.35 10.7017 59.6337 10.74C60.1167 11.4147 60.569 12.0932 60.9907 12.7755C61.4123 13.4578 61.811 14.1402 62.1867 14.8225C62.5623 15.5048 62.9188 16.1948 63.2562 16.8925C63.5935 17.5902 63.9117 18.3032 64.2107 19.0315L63.7622 10.671C64.0075 10.671 64.3142 10.6825 64.6822 10.7055C65.0578 10.7285 65.445 10.7592 65.8437 10.7975C66.25 10.8282 66.618 10.8665 66.9477 10.9125C67.285 10.9585 67.538 11.0083 67.7067 11.062C67.7373 11.3533 67.7642 11.683 67.7872 12.051C67.8178 12.4113 67.8408 12.8023 67.8562 13.224C67.8715 13.638 67.8868 14.0712 67.9022 14.5235C67.9175 14.9682 67.9252 15.4205 67.9252 15.8805C67.9328 16.3405 67.9367 16.7928 67.9367 17.2375C67.9367 18.0962 67.9252 18.951 67.9022 19.802C67.8868 20.6453 67.86 21.4273 67.8217 22.148C67.7833 22.8687 67.7412 23.4782 67.6952 23.9765C67.6492 24.4748 67.5993 24.8007 67.5457 24.954C67.3157 24.9617 67.0665 24.9693 66.7982 24.977C66.5375 24.9847 66.2692 24.9885 65.9932 24.9885C65.5792 24.9885 65.1767 24.9808 64.7857 24.9655C64.4023 24.9425 64.0803 24.908 63.8197 24.862C63.7583 24.747 63.6548 24.5515 63.5092 24.2755C63.3635 23.9918 63.1795 23.6468 62.9572 23.2405C62.7425 22.8342 62.501 22.3818 62.2327 21.8835C61.972 21.3852 61.696 20.8677 61.4047 20.331C61.1133 19.7867 60.8182 19.2423 60.5192 18.698C60.2278 18.1537 59.9442 17.6285 59.6682 17.1225C59.6988 17.3295 59.7218 17.6323 59.7372 18.031C59.7602 18.4297 59.7793 18.8858 59.7947 19.3995C59.8177 19.9132 59.8368 20.4498 59.8522 21.0095C59.8752 21.5615 59.8905 22.102 59.8982 22.631C59.9135 23.16 59.925 23.6392 59.9327 24.0685C59.9403 24.4902 59.9442 24.8275 59.9442 25.0805ZM75.8285 25.5865C74.1879 25.5865 72.8462 25.2415 71.8035 24.5515C70.7685 23.8615 70.0057 22.9223 69.515 21.734C69.0244 20.538 68.779 19.1887 68.779 17.686C68.779 16.168 69.0589 14.8187 69.6185 13.638C70.1782 12.4497 70.9794 11.5182 72.022 10.8435C73.0724 10.1612 74.3412 9.82 75.8285 9.82C77.0629 9.82 78.1247 10.0193 79.014 10.418C79.9034 10.809 80.6317 11.361 81.199 12.074C81.774 12.7793 82.1995 13.6073 82.4755 14.558C82.7515 15.5087 82.8895 16.536 82.8895 17.64C82.8895 18.675 82.7515 19.6717 82.4755 20.63C82.2072 21.5807 81.7894 22.4278 81.222 23.1715C80.6547 23.9152 79.9225 24.5055 79.0255 24.9425C78.1362 25.3718 77.0705 25.5865 75.8285 25.5865ZM75.886 21.435C76.5914 21.435 77.1855 21.2357 77.6685 20.837C78.1515 20.4383 78.5157 19.917 78.761 19.273C79.014 18.629 79.1405 17.9428 79.1405 17.2145C79.1405 16.6778 79.0869 16.168 78.9795 15.685C78.8799 15.202 78.7112 14.7765 78.4735 14.4085C78.2359 14.0328 77.9215 13.7377 77.5305 13.523C77.1395 13.3083 76.6565 13.201 76.0815 13.201C75.4605 13.201 74.9085 13.4003 74.4255 13.799C73.9502 14.19 73.5745 14.719 73.2985 15.386C73.0302 16.053 72.896 16.789 72.896 17.594C72.896 18.33 72.988 18.9893 73.172 19.572C73.356 20.147 73.6665 20.6032 74.1035 20.9405C74.5482 21.2702 75.1424 21.435 75.886 21.435ZM91.5505 25.1725C91.4278 24.7968 91.3013 24.3982 91.171 23.9765C91.0406 23.5472 90.9103 23.114 90.78 22.677C90.6573 22.2323 90.5423 21.7992 90.435 21.3775C90.3353 20.9482 90.2433 20.5533 90.159 20.193C90.0746 19.825 90.0133 19.5068 89.975 19.2385L90.4695 19.158C90.4388 19.273 90.3851 19.4608 90.3085 19.7215C90.2318 19.9745 90.136 20.2773 90.021 20.63C89.906 20.975 89.7795 21.3468 89.6415 21.7455C89.5035 22.1442 89.3616 22.5428 89.216 22.9415C89.0703 23.3402 88.9246 23.7158 88.779 24.0685C88.641 24.4212 88.5145 24.724 88.3995 24.977L83.788 24.8045C83.719 24.3215 83.65 23.6775 83.581 22.8725C83.512 22.0675 83.443 21.1475 83.374 20.1125C83.305 19.0775 83.2398 17.9697 83.1785 16.789C83.1248 15.6083 83.0788 14.3932 83.0405 13.1435C83.0021 11.8938 82.983 10.6518 82.983 9.4175L87.491 9.59C87.491 10.188 87.4795 10.8818 87.4565 11.6715C87.4411 12.4612 87.4181 13.2815 87.3875 14.1325C87.3645 14.9835 87.3415 15.8115 87.3185 16.6165C87.2955 17.4215 87.2725 18.1422 87.2495 18.7785C87.2341 19.4072 87.2226 19.8902 87.215 20.2275L86.985 20.492C87.0693 20.2697 87.169 19.9707 87.284 19.595C87.399 19.2117 87.5178 18.7862 87.6405 18.3185C87.7708 17.8432 87.9011 17.3487 88.0315 16.835C88.1618 16.3137 88.2806 15.8038 88.388 15.3055C88.503 14.8072 88.595 14.3472 88.664 13.9255C88.7406 13.4962 88.7905 13.1358 88.8135 12.8445L91.792 12.7755C91.7996 12.9442 91.8265 13.2432 91.8725 13.6725C91.9261 14.0942 91.9951 14.5963 92.0795 15.179C92.1638 15.754 92.252 16.3558 92.344 16.9845C92.4436 17.6132 92.5433 18.2188 92.643 18.8015C92.7503 19.3842 92.85 19.8978 92.942 20.3425C93.0416 20.7872 93.1298 21.1053 93.2065 21.297L92.643 21.32C92.781 20.5457 92.9036 19.6295 93.011 18.5715C93.1183 17.5135 93.2065 16.421 93.2755 15.294C93.3521 14.1593 93.4058 13.0822 93.4365 12.0625C93.4748 11.0428 93.494 10.1842 93.494 9.4865L97.5305 9.061C97.5305 10.372 97.473 11.7137 97.358 13.086C97.2506 14.4507 97.1088 15.777 96.9325 17.065C96.7561 18.3453 96.576 19.5222 96.392 20.5955C96.2156 21.6688 96.0508 22.5735 95.8975 23.3095C95.7518 24.0378 95.6483 24.5247 95.587 24.77L91.5505 25.1725ZM102.415 19.7905C102.162 19.7905 101.813 19.7828 101.369 19.7675C100.924 19.7522 100.475 19.733 100.023 19.71C99.5784 19.6793 99.2104 19.6487 98.9191 19.618C98.8654 18.8897 98.8156 18.1422 98.7696 17.3755C98.7236 16.6088 98.6814 15.8345 98.6431 15.0525C98.6124 14.2628 98.5856 13.4732 98.5626 12.6835C98.5396 11.8862 98.5243 11.1003 98.5166 10.326C98.5089 9.55167 98.5089 8.7965 98.5166 8.0605L103.301 8.256C103.27 8.53967 103.22 9.0265 103.151 9.7165C103.09 10.4065 103.021 11.2077 102.944 12.12C102.875 13.0247 102.802 13.96 102.726 14.926C102.649 15.892 102.584 16.8043 102.53 17.663C102.476 18.514 102.438 19.2232 102.415 19.7905ZM100.817 25.299C100.073 25.299 99.4443 25.069 98.9306 24.609C98.4246 24.1413 98.1716 23.551 98.1716 22.838C98.1716 22.1327 98.4246 21.5768 98.9306 21.1705C99.4443 20.7642 100.061 20.561 100.782 20.561C101.495 20.561 102.105 20.7718 102.611 21.1935C103.117 21.6152 103.37 22.148 103.37 22.792C103.37 23.5663 103.124 24.1797 102.634 24.632C102.151 25.0767 101.545 25.299 100.817 25.299Z" fill="black"/>
</svg>
