<svg width="98" height="80" viewBox="0 0 98 80" fill="none" xmlns="http://www.w3.org/2000/svg">
<path d="M70.5 0L5.5 17.5L0 31L10 52.5L13.5 80L94.5 64L98 57L90.5 23L77 26L70.5 0Z" fill="black"/>
<rect x="7.55762" y="20.6523" width="62.4417" height="27" transform="rotate(-14.0001 7.55762 20.6523)" fill="white"/>
<rect x="16.501" y="41.9473" width="73.0942" height="28" transform="rotate(-11 16.501 41.9473)" fill="white"/>
<path d="M21.2375 39.4006L16.1552 40.4452C15.6391 38.5611 15.1153 36.6835 14.5839 34.8125C14.0612 32.9393 13.5319 31.077 12.9961 29.2257C12.4669 27.3634 11.9332 25.5207 11.3952 23.6978C12.3231 23.4015 13.2477 23.1292 14.169 22.8809C15.0991 22.6305 15.9833 22.4008 16.8216 22.1918C17.8542 21.9436 18.7962 21.7597 19.6476 21.6402C20.4968 21.512 21.215 21.4349 21.8022 21.4091C22.0266 22.0859 22.2477 22.7867 22.4655 23.5116C22.6834 24.2364 22.8565 24.8564 22.985 25.3717C22.64 25.4391 22.1357 25.537 21.4721 25.6654C20.815 25.7828 20.0847 25.9232 19.2813 26.0864C18.4758 26.2409 17.6844 26.415 16.9072 26.6088C16.9748 26.7681 17.0478 26.9679 17.1262 27.2081C17.2134 27.4461 17.2983 27.6939 17.3811 27.9515C17.4726 28.2069 17.5511 28.4471 17.6164 28.672C18.1142 28.5479 18.6785 28.4304 19.3094 28.3194C19.9403 28.2085 20.5341 28.1161 21.0908 28.0422C21.654 27.9575 22.0687 27.9097 22.3351 27.899C22.4788 28.4753 22.6235 29.0746 22.7694 29.6968C22.9152 30.319 23.0458 30.9914 23.161 31.714C22.8205 31.7618 22.4046 31.8237 21.9134 31.8998C21.431 31.9737 20.9289 32.0618 20.4071 32.1641C19.8854 32.2663 19.3974 32.3741 18.9433 32.4873C19.1917 33.186 19.4477 33.9337 19.7113 34.7306C19.9815 35.5166 20.2484 36.3081 20.512 37.105C20.7757 37.9018 21.0175 38.6671 21.2375 39.4006ZM26.9583 37.5569C26.8735 37.0679 26.7418 36.4097 26.5634 35.5823C26.3915 34.744 26.1869 33.8118 25.9496 32.7857C25.7101 31.7509 25.4532 30.6833 25.1789 29.583C24.9045 28.4827 24.6258 27.402 24.3427 26.341C24.0575 25.2712 23.7831 24.2822 23.5195 23.374C23.2647 22.4636 23.0425 21.7028 22.853 21.0914C23.1325 20.9847 23.5757 20.8278 24.1826 20.6208C24.7983 20.4116 25.4424 20.2232 26.1148 20.0556C26.4204 19.9794 26.7807 19.8988 27.1954 19.814C27.619 19.7269 27.9093 19.6824 28.0665 19.6803C28.1732 20.0711 28.2984 20.5918 28.442 21.2423C28.5922 21.882 28.7577 22.6199 28.9383 23.456C29.1168 24.2834 29.3018 25.1741 29.4932 26.1281C29.6825 27.0734 29.874 28.046 30.0677 29.0458C30.1569 29.5152 30.2417 29.9857 30.3222 30.4572C30.4026 30.9287 30.47 31.3479 30.5244 31.7146C31.2208 31.4946 31.8845 31.292 32.5155 31.1069C33.153 30.9108 33.785 30.7301 34.4116 30.5646C35.0469 30.3969 35.6964 30.2303 36.3601 30.0648C36.4625 30.2897 36.5965 30.6784 36.7621 31.2307C36.9342 31.7722 37.1073 32.3551 37.2816 32.9795C37.4645 33.6017 37.6137 34.1442 37.7291 34.6071C36.692 35.0233 35.6189 35.4068 34.5098 35.7576C33.4095 36.1061 32.3528 36.4067 31.3398 36.6592C30.5298 36.8705 29.7406 37.0533 28.9722 37.2078C28.2125 37.3601 27.5412 37.4765 26.9583 37.5569ZM46.4284 33.7877C44.5597 34.2536 42.9335 34.2417 41.5499 33.7518C40.175 33.2598 39.0394 32.4067 38.143 31.1925C37.2445 29.9696 36.5818 28.5023 36.1551 26.7907C35.724 25.0616 35.6595 23.4452 35.9617 21.9414C36.2617 20.4289 36.9097 19.1404 37.9057 18.0758C38.9083 17.0003 40.2567 16.2513 41.9508 15.8289C43.3568 15.4784 44.6229 15.4039 45.7491 15.6054C46.8731 15.7982 47.8595 16.2201 48.7082 16.8712C49.5635 17.5113 50.2833 18.3335 50.8676 19.338C51.452 20.3425 51.9009 21.4735 52.2145 22.731C52.5084 23.9099 52.6343 25.0843 52.592 26.2543C52.5564 27.4133 52.321 28.497 51.886 29.5051C51.451 30.5133 50.7847 31.3937 49.8871 32.1462C48.996 32.8878 47.8431 33.4349 46.4284 33.7877ZM45.3149 29.0426C46.1183 28.8423 46.7385 28.4465 47.1755 27.8552C47.6124 27.264 47.8791 26.5667 47.9757 25.7635C48.081 24.9581 48.0302 24.1406 47.8233 23.311C47.6709 22.6997 47.465 22.1342 47.2056 21.6146C46.9549 21.0927 46.6419 20.6559 46.2667 20.3043C45.8893 19.9439 45.4475 19.6969 44.9411 19.5635C44.4348 19.43 43.8542 19.4449 43.1992 19.6082C42.4919 19.7846 41.9197 20.1684 41.4828 20.7596C41.0524 21.34 40.7747 22.0492 40.6498 22.8874C40.5336 23.7233 40.5898 24.5998 40.8184 25.5167C41.0274 26.355 41.3194 27.0799 41.6945 27.6913C42.0674 28.294 42.5506 28.7254 43.1442 28.9856C43.7443 29.2348 44.4679 29.2538 45.3149 29.0426ZM64.2188 28.8511C63.9724 28.4581 63.7151 28.0399 63.4469 27.5966C63.1765 27.1446 62.9051 26.6882 62.6325 26.2275C62.3665 25.7558 62.1125 25.2951 61.8705 24.8453C61.635 24.3846 61.4181 23.9609 61.2197 23.5745C61.0191 23.1792 60.8589 22.8343 60.739 22.5395L61.2794 22.3074C61.2772 22.4471 61.2694 22.6763 61.2561 22.9949C61.2406 23.3049 61.2175 23.6771 61.1866 24.1114C61.1536 24.537 61.1151 24.9965 61.0711 25.4898C61.0272 25.9831 60.9788 26.4775 60.9261 26.9729C60.8734 27.4684 60.8142 27.9377 60.7484 28.3807C60.6914 28.8216 60.6333 29.2025 60.5742 29.5233L55.2725 30.6365C55.0567 30.1059 54.7953 29.392 54.488 28.4946C54.1808 27.5973 53.841 26.569 53.4684 25.4097C53.0959 24.2504 52.7071 23.007 52.3019 21.6796C51.9055 20.35 51.508 18.9789 51.1094 17.5664C50.7108 16.1539 50.3363 14.7446 49.9857 13.3387L55.1695 12.2549C55.3394 12.936 55.5233 13.7296 55.7214 14.6356C55.9282 15.5394 56.1349 16.4804 56.3417 17.4584C56.5572 18.4342 56.7661 19.3839 56.9685 20.3074C57.171 21.2308 57.3494 22.0582 57.5039 22.7896C57.665 23.51 57.7891 24.0634 57.8762 24.4498L57.6893 24.8164C57.7222 24.5392 57.7508 24.1704 57.7751 23.7098C57.7972 23.2405 57.8118 22.7221 57.8187 22.1546C57.8321 21.5761 57.8402 20.9759 57.8427 20.3538C57.8431 19.7229 57.8337 19.1085 57.8144 18.5103C57.8039 17.9101 57.778 17.36 57.7369 16.8601C57.7023 16.3493 57.6567 15.9247 57.6002 15.5863L60.9732 14.6618C61.0299 14.8518 61.1453 15.1847 61.3197 15.6607C61.5005 16.1258 61.7217 16.6782 61.9833 17.3179C62.2426 17.9489 62.514 18.6094 62.7973 19.2993C63.0894 19.9871 63.3749 20.6487 63.6539 21.284C63.9416 21.9172 64.201 22.474 64.4321 22.9544C64.6719 23.4326 64.8627 23.7699 65.0045 23.9665L64.3691 24.1527C64.3064 23.2315 64.186 22.1531 64.0078 20.9175C63.8295 19.682 63.6197 18.4125 63.3782 17.1092C63.1433 15.795 62.8985 14.5528 62.6439 13.3827C62.398 12.2103 62.1759 11.2268 61.9778 10.4322L66.4547 8.80117C66.827 10.2945 67.1426 11.839 67.4013 13.4348C67.6666 15.0197 67.8817 16.5707 68.0467 18.0879C68.2094 19.5963 68.3384 20.988 68.4337 22.2628C68.5376 23.5354 68.6068 24.6127 68.6412 25.4946C68.6821 26.3656 68.7025 26.9495 68.7023 27.2463L64.2188 28.8511Z" fill="black"/>
<path d="M39.4711 58.5971C39.122 59.2582 38.6544 59.9206 38.0683 60.5845C37.4917 61.2462 36.8008 61.8391 35.9958 62.3632C35.2002 62.8851 34.2927 63.2586 33.2732 63.4835C31.9139 63.7833 30.664 63.8165 29.5236 63.583C28.3927 63.3475 27.3805 62.8877 26.4872 62.2037C25.6013 61.5083 24.8498 60.6148 24.2329 59.5234C23.616 58.432 23.1524 57.1831 22.8421 55.7766C22.4402 53.9547 22.3993 52.266 22.7194 50.7105C23.049 49.153 23.7284 47.835 24.7576 46.7567C25.7962 45.6762 27.184 44.9444 28.9209 44.5613C30.3463 44.2468 31.7287 44.2537 33.0682 44.5819C34.4056 44.9006 35.5615 45.586 36.536 46.6381C36.3121 47.0142 36.0079 47.4525 35.6234 47.9531C35.2462 48.4421 34.8507 48.9154 34.4369 49.373C34.0325 49.8285 33.6797 50.2033 33.3783 50.4974C33.3312 50.4187 33.2156 50.276 33.0314 50.0691C32.8472 49.8623 32.6089 49.6575 32.3167 49.4546C32.0224 49.2424 31.6845 49.0793 31.3031 48.9655C30.9216 48.8517 30.509 48.8437 30.0653 48.9416C29.5934 49.0457 29.204 49.2553 28.8974 49.5704C28.6002 49.8835 28.3804 50.2784 28.2381 50.7553C28.0938 51.2227 28.0217 51.7484 28.0218 52.3324C28.0199 52.907 28.0887 53.5105 28.2282 54.143C28.3698 54.7849 28.5523 55.388 28.7758 55.9525C29.0088 56.5148 29.2791 56.9996 29.5867 57.4069C29.9017 57.8027 30.2619 58.0895 30.6674 58.2673C31.0823 58.4431 31.5447 58.4747 32.0544 58.3623C32.4698 58.2707 32.8637 58.1046 33.2363 57.864C33.6068 57.614 33.946 57.3115 34.2537 56.9565C34.5709 56.5995 34.8552 56.2051 35.1064 55.7735C35.5517 55.9525 36.0525 56.2033 36.6088 56.5261C37.1724 56.8373 37.7071 57.1747 38.213 57.5383C38.7283 57.8998 39.1477 58.2527 39.4711 58.5971ZM45.0421 60.917C44.7967 60.9711 44.4406 61.0398 43.9739 61.1229C43.5092 61.2155 43.0011 61.3128 42.4494 61.4147C41.9072 61.5145 41.3791 61.6112 40.8652 61.7048C40.3628 61.8057 39.9396 61.8842 39.5957 61.9403C39.5641 61.3038 39.5418 60.5069 39.5286 59.5496C39.5154 58.5923 39.5107 57.5391 39.5146 56.3899C39.5164 55.2313 39.523 54.0271 39.5344 52.7774C39.5552 51.5255 39.5781 50.283 39.603 49.05C39.6354 47.8055 39.6755 46.6187 39.7234 45.4895C39.7692 44.3509 39.8174 43.3355 39.8681 42.4433C40.915 42.0738 41.9116 41.7451 42.8578 41.4571C43.8019 41.1598 44.7224 40.9122 45.6191 40.7144C46.1667 40.5936 46.7089 40.4938 47.2458 40.4149C47.7807 40.3266 48.3245 40.2562 48.8771 40.2036C49.2491 40.9926 49.6451 41.8902 50.0651 42.8964C50.485 43.9025 50.9534 45.1059 51.4702 46.5064C51.985 47.8975 52.5591 49.5577 53.1925 51.4868C53.8354 53.4139 54.5564 55.695 55.3555 58.3301C55.0166 58.4543 54.5267 58.6119 53.8858 58.8028C53.2449 58.9937 52.5735 59.1813 51.8718 59.3658C51.1701 59.5503 50.5454 59.703 49.9979 59.8238C49.9187 59.5542 49.8352 59.2657 49.7476 58.9584C49.6674 58.6395 49.584 58.3065 49.4976 57.9593C49.4111 57.6121 49.3235 57.2602 49.235 56.9035C49.1464 56.5469 49.0589 56.195 48.9724 55.8478C48.8838 55.4912 48.8041 55.1524 48.7333 54.8315C48.4333 54.9075 48.1249 54.9904 47.8082 55.0801C47.4893 55.1603 47.1762 55.2443 46.8688 55.3319C46.5594 55.41 46.2709 55.4934 46.0034 55.5821C45.7433 55.6593 45.5125 55.735 45.3111 55.8091C45.1097 55.8833 44.9591 55.9412 44.8594 55.983C44.8564 56.5974 44.8638 57.2145 44.8817 57.8342C44.8976 58.4444 44.9203 59.0185 44.9498 59.5564C44.9794 60.0943 45.0102 60.5479 45.0421 60.917ZM44.5331 51.4074C44.6968 51.3416 44.9774 51.245 45.375 51.1177C45.782 50.9883 46.2053 50.8653 46.6448 50.7485C47.0822 50.6223 47.4189 50.5332 47.6549 50.4811C47.6059 50.3039 47.5147 49.9577 47.3813 49.4427C47.2478 48.9277 47.0983 48.3618 46.9325 47.745C46.7667 47.1282 46.6192 46.5718 46.49 46.0756C46.3587 45.5701 46.2669 45.2438 46.2147 45.097C46.0826 45.1261 45.8817 45.1803 45.6121 45.2596C45.3404 45.3294 45.0792 45.4019 44.8285 45.477C44.5873 45.55 44.4158 45.6027 44.314 45.635C44.3198 45.9307 44.3297 46.3344 44.3436 46.8461C44.3575 47.3578 44.3739 47.9036 44.3929 48.4834C44.4214 49.0612 44.4436 49.6106 44.4596 50.1318C44.485 50.6508 44.5095 51.076 44.5331 51.4074ZM63.0529 56.9736C62.4016 57.1173 61.7063 57.1964 60.9671 57.211C60.2299 57.235 59.4845 57.1767 58.7309 57.0361C57.9752 56.886 57.2421 56.6369 56.5318 56.2888C55.8309 55.9385 55.1967 55.4647 54.6294 54.8672C54.6631 54.7509 54.784 54.5361 54.9921 54.2229C55.2076 53.8982 55.4613 53.5453 55.7534 53.1641C56.0528 52.7714 56.348 52.4043 56.639 52.063C56.9373 51.7101 57.1825 51.453 57.3746 51.2919C57.8072 51.5924 58.2298 51.8704 58.6426 52.1258C59.0626 52.3697 59.4838 52.5738 59.9061 52.738C60.3284 52.9022 60.7534 53.0114 61.1811 53.0655C61.6162 53.1082 62.0555 53.0805 62.4992 52.9827C62.9712 52.8785 63.3253 52.7113 63.5616 52.481C63.7958 52.2413 63.9393 51.972 63.9922 51.6733C64.0545 51.3725 64.0534 51.0757 63.9888 50.7831C63.9409 50.566 63.8411 50.3603 63.6894 50.1661C63.5377 49.9719 63.3256 49.796 63.0533 49.6383C62.7788 49.4711 62.4288 49.3207 62.0034 49.1868C61.5873 49.0509 61.0921 48.9375 60.5176 48.8464C59.2828 48.6337 58.1393 48.3861 57.0871 48.1035C56.0327 47.8114 55.1453 47.3786 54.4248 46.805C53.7138 46.2293 53.2417 45.4128 53.0084 44.3556C52.7586 43.2228 52.8655 42.2044 53.3293 41.3002C53.8004 40.3846 54.5068 39.615 55.4482 38.9916C56.3991 38.366 57.4693 37.9221 58.6587 37.6597C59.4988 37.4744 60.3435 37.3771 61.1928 37.368C62.0516 37.3567 62.8918 37.4634 63.7135 37.688C64.5425 37.9011 65.3225 38.2735 66.0536 38.8051C65.9504 39.0556 65.7669 39.4128 65.503 39.8769C65.2485 40.3389 64.9705 40.8061 64.6688 41.2785C64.3766 41.7488 64.1197 42.1322 63.898 42.4285C63.4046 42.1216 62.8965 41.8823 62.3735 41.7106C61.8485 41.5294 61.3381 41.4143 60.8422 41.3653C60.3558 41.3143 59.9096 41.3335 59.5037 41.423C59.0129 41.5313 58.6052 41.7252 58.2808 42.0046C57.9564 42.2841 57.841 42.6362 57.9347 43.061C57.9743 43.2403 58.0495 43.4019 58.1604 43.5457C58.2808 43.6875 58.4358 43.8067 58.6254 43.9035C58.8151 44.0002 59.0414 44.0839 59.3045 44.1546C59.5675 44.2252 59.871 44.2771 60.2148 44.3101C61.2715 44.4334 62.2737 44.5786 63.2213 44.7457C64.1783 44.9108 65.044 45.1554 65.8183 45.4795C66.6 45.7921 67.2536 46.2419 67.779 46.8288C68.3044 47.4157 68.6734 48.1906 68.8858 49.1535C69.094 50.0974 69.1031 50.9913 68.9131 51.8351C68.723 52.6788 68.3627 53.4463 67.8322 54.1375C67.2995 54.8192 66.6276 55.4079 65.8163 55.9037C65.0124 56.3879 64.0913 56.7445 63.0529 56.9736ZM66.646 41.0502C66.5488 40.8341 66.4298 40.5188 66.2889 40.1044C66.1554 39.6785 66.0224 39.2327 65.8899 38.767C65.7648 38.2897 65.6512 37.8644 65.549 37.491C65.4563 37.1154 65.3964 36.8663 65.3693 36.7436C66.4078 36.4254 67.5911 36.0902 68.919 35.7378C70.247 35.3855 71.6 35.0573 72.9782 34.7533C74.0355 34.5201 75.0696 34.3167 76.0806 34.1432C77.0896 33.9602 78.0229 33.8384 78.8807 33.7779C79.0764 34.6652 79.2256 35.4985 79.3282 36.2777C79.4287 37.0475 79.4724 37.6268 79.4592 38.0158C79.2893 38.0533 79.0486 38.1064 78.737 38.1751C78.4234 38.2344 78.0779 38.3057 77.7003 38.389C77.3206 38.4628 76.9467 38.5403 76.5785 38.6216C76.2177 38.6912 75.9042 38.7505 75.6378 38.7994C75.7337 39.1445 75.8697 39.649 76.0459 40.313C76.22 40.9675 76.4207 41.7201 76.6479 42.5708C76.8825 43.41 77.1265 44.2916 77.3799 45.2158C77.6311 46.1304 77.8746 47.032 78.1101 47.9204C78.3552 48.8068 78.5778 49.614 78.7779 50.3419C78.9781 51.0699 79.1444 51.6668 79.2769 52.1325C79.4072 52.5888 79.4807 52.8547 79.4974 52.9302C79.0777 53.0921 78.5343 53.2763 77.8672 53.4829C77.2 53.6894 76.5344 53.8808 75.8705 54.057C75.2065 54.2331 74.6621 54.3681 74.2373 54.4618C74.0882 53.9205 73.9162 53.2754 73.7213 52.5265C73.5243 51.7681 73.3196 50.9521 73.107 50.0784C72.8945 49.2046 72.6778 48.312 72.4569 47.4005C72.236 46.489 72.0241 45.5954 71.821 44.7196C71.6158 43.8343 71.4299 43.0141 71.2633 42.2589C71.1654 41.8153 71.0749 41.4046 70.9916 41.0271C70.9156 40.6379 70.848 40.2866 70.7887 39.973C70.4835 40.07 70.1583 40.1665 69.8132 40.2625C69.4754 40.3469 69.1293 40.4381 68.7747 40.5361C68.4181 40.6246 68.0615 40.7132 67.7049 40.8018C67.3462 40.8809 66.9932 40.9637 66.646 41.0502Z" fill="black"/>
</svg>
